<?xml version="1.0" encoding="iso-8859-1"?>
<!-- Uploaded to: SVG Repo, www.svgrepo.com, Generator: SVG Repo Mixer Tools -->
<!DOCTYPE svg PUBLIC "-//W3C//DTD SVG 1.1//EN" "http://www.w3.org/Graphics/SVG/1.1/DTD/svg11.dtd">
<svg fill="#000000" version="1.1" id="Capa_1" xmlns="http://www.w3.org/2000/svg" xmlns:xlink="http://www.w3.org/1999/xlink" 
	 width="800px" height="800px" viewBox="0 0 459.511 459.512"
	 xml:space="preserve">
<g>
	<path d="M106.842,459.512h1.367c6.904,0,12.5-5.598,12.5-12.5V257.674c4.781,0.293,9.545,0.439,14.257,0.439
		c34.338,0,67.48-7.24,110.818-24.211c14.98-5.868,31.508-8.842,49.119-8.842c26.184,0,46.478,6.914,50.712,8.771
		c4.891,2.08,8.54,2.854,12.591,0.83c4.235-2.115,6.963-6.443,6.964-11.18V19.965c0.001-5.408-3.477-10.205-8.616-11.885
		C340.154,2.719,321.852,0,302.161,0c-42.015,0-83.192,12.104-113.259,20.939c-7.427,2.184-14.441,4.244-20.343,5.779
		c-7.127,1.854-14.512,2.793-21.949,2.793c-10.437,0-19.391-1.832-25.935-3.766c-0.479-6.467-5.877-11.564-12.466-11.564h-1.367
		c-6.904,0-12.5,5.596-12.5,12.5v420.33C94.342,453.914,99.938,459.512,106.842,459.512z M119.342,51.248
		c7.571,1.82,16.857,3.264,27.268,3.264c9.56,0,19.063-1.211,28.243-3.598c6.279-1.635,13.478-3.75,21.098-5.988
		C224.562,36.518,263.746,25,302.162,25c13.61,0,26.354,1.469,38.007,4.369l-0.042,176.332c-11.719-3.076-27.474-5.641-45.222-5.641
		c-20.745,0-40.339,3.555-58.234,10.563c-40.258,15.764-70.674,22.49-101.703,22.49c-5.153,0-10.38-0.197-15.624-0.588
		L119.342,51.248L119.342,51.248z"/>
</g>
</svg>